<html>
<head>
<meta charset="UTF-8">
<meta name="viewport" content="width=device-width, initial-scale=1.0"/>

<style>
.comment
{
    padding-left: 20px;
    margin-top: 4px;
    margin-right: 4px;
    margin-bottom: 4px;
    border: 2px #000 solid;
}
.submission
{
    border: 4px #00f solid;
    padding-left: 20px;
}
.hidden
{
    display: none;
}
</style>
</head>
<body><div class="submission" id="t3_6d9wgq">
    <p class="userinfo">
        <a href="https://www.reddit.com/u/V2atX">V2atX</a>
        <span class="score"> | 34 points</span>
        <span class="timestamp"> | May 25 2017 14:20:02</span>
    </p>
    <strong>Star Trek: The Wrath of Khan (1982) Director's Cut [1080p] [x264]</strong>
    <p><p>This is encoded with a constant quality RF of 20, so despite the low bitrate it looks quite good.</p>
<p>Link is protected by a captcha: http://links.snahp.it/197WrathOfKhan</p>
<p>Forced Subs for Vulcan were already burned on the BluRay stream</p>
<p>Full Medainfo:</p>
<pre><code>General
Unique ID                                : 204743461213410346406464419449440255337 (0x9A0828026A0FD54FB719E23DD5833D69)
Complete name                            : Star Trek The Wrath of Khan (1982).mkv
Format                                   : Matroska
Format version                           : Version 4 / Version 2
File size                                : 4.49 GiB
Duration                                 : 1 h 56 min
Overall bit rate                         : 5 514 kb/s
Encoded date                             : UTC 2016-12-29 23:12:14
Writing application                      : mkvmerge v9.7.1 ('Pandemonium') 64bit
Writing library                          : libebml v1.3.4 + libmatroska v1.4.5

Video
ID                                       : 1
Format                                   : AVC
Format/Info                              : Advanced Video Codec
Format profile                           : High@L4.1
Format settings, CABAC                   : Yes
Format settings, ReFrames                : 5 frames
Codec ID                                 : V_MPEG4/ISO/AVC
Duration                                 : 1 h 56 min
Bit rate                                 : 4 001 kb/s
Width                                    : 1 920 pixels
Height                                   : 804 pixels
Display aspect ratio                     : 2.40:1
Frame rate mode                          : Constant
Frame rate                               : 23.976 (24000/1001) FPS
Color space                              : YUV
Chroma subsampling                       : 4:2:0
Bit depth                                : 8 bits
Scan type                                : Progressive
Bits/(Pixel*Frame)                       : 0.108
Stream size                              : 3.26 GiB (73%)
Writing library                          : x264 core 142 r2479 dd79a61
Encoding settings                        : cabac=1 / ref=5 / deblock=1:-1:-1 / analyse=0x3:0x133 / me=umh / subme=10 / psy=1 / psy_rd=1.00:0.15 / mixed_ref=1 / me_range=24 / chroma_me=1 / trellis=2 / 8x8dct=1 / cqm=0 / deadzone=21,11 / fast_pskip=1 / chroma_qp_offset=-3 / threads=12 / lookahead_threads=2 / sliced_threads=0 / nr=0 / decimate=1 / interlaced=0 / bluray_compat=0 / constrained_intra=0 / bframes=8 / b_pyramid=2 / b_adapt=2 / b_bias=0 / direct=3 / weightb=1 / open_gop=0 / weightp=2 / keyint=240 / keyint_min=24 / scenecut=40 / intra_refresh=0 / rc_lookahead=60 / rc=crf / mbtree=1 / crf=20.0 / qcomp=0.60 / qpmin=0 / qpmax=69 / qpstep=4 / vbv_maxrate=62500 / vbv_bufsize=78125 / crf_max=0.0 / nal_hrd=none / filler=0 / ip_ratio=1.40 / aq=1:1.00
Default                                  : Yes
Forced                                   : No
Color range                              : Limited
Color primaries                          : BT.709
Transfer characteristics                 : BT.709
Matrix coefficients                      : BT.709

Audio
ID                                       : 2
Format                                   : DTS
Format/Info                              : Digital Theater Systems
Mode                                     : 16
Format settings, Endianness              : Big
Codec ID                                 : A_DTS
Duration                                 : 1 h 56 min
Bit rate mode                            : Constant
Bit rate                                 : 1 510 kb/s
Channel(s)                               : 6 channels
Channel positions                        : Front: L C R, Side: L R, LFE
Sampling rate                            : 48.0 kHz
Frame rate                               : 93.750 FPS (512 spf)
Bit depth                                : 24 bits
Compression mode                         : Lossy
Delay relative to video                  : -83 ms
Stream size                              : 1.23 GiB (27%)
Language                                 : English
Default                                  : Yes
Forced                                   : No

Text
ID                                       : 3
Format                                   : UTF-8
Codec ID                                 : S_TEXT/UTF8
Codec ID/Info                            : UTF-8 Plain Text
Duration                                 : 1 h 47 min
Bit rate                                 : 56 b/s
Count of elements                        : 1143
Stream size                              : 44.6 KiB (0%)
Language                                 : English
Default                                  : Yes
Forced                                   : No

Menu
00:00:00.000                             : :Kapitel 1
00:05:00.091                             : :Kapitel 2
00:10:00.182                             : :Kapitel 3
00:15:00.107                             : :Kapitel 4
00:20:00.199                             : :Kapitel 5
00:25:00.165                             : :Kapitel 6
00:30:00.131                             : :Kapitel 7
00:35:00.098                             : :Kapitel 8
00:40:00.147                             : :Kapitel 9
00:45:00.197                             : :Kapitel 10
00:50:00.205                             : :Kapitel 11
00:55:00.171                             : :Kapitel 12
01:00:00.138                             : :Kapitel 13
01:05:00.146                             : :Kapitel 14
01:10:00.195                             : :Kapitel 15
01:15:00.120                             : :Kapitel 16
01:20:00.086                             : :Kapitel 17
01:25:00.094                             : :Kapitel 18
01:30:00.102                             : :Kapitel 19
01:35:00.152                             : :Kapitel 20
01:40:00.202                             : :Kapitel 21
01:45:00.127                             : :Kapitel 22
01:50:00.135                             : :Kapitel 23
</code></pre></p>
    <p class="toolbar">
        <a href="https://www.reddit.com/r/megalinks/comments/6d9wgq">permalink</a>
    </p>
</div>
<div class="comment" id="t1_di10s22">
    <p class="userinfo">
        <a
        class="toggle_hide_button"
        href="javascript:void(0)"
        onclick="toggle_collapse(this.parentElement.parentElement)">[-]
        </a>
        <a href="https://www.reddit.com/u/Shanks01">Shanks01</a>
        <span class="score"> | 5 points</span>
        <span class="timestamp"> | May 25 2017 15:08:38</span>
    </p>
    <div class="collapsible">
        <p>Muchas gracias .</p>
        <p class="toolbar">
            <a href="https://www.reddit.com/r/megalinks/comments/6d9wgq/_/di10s22">permalink</a>
        </p>
        
    </div>
</div>

<div class="comment" id="t1_di1ul5i">
    <p class="userinfo">
        <a
        class="toggle_hide_button"
        href="javascript:void(0)"
        onclick="toggle_collapse(this.parentElement.parentElement)">[-]
        </a>
        <a href="https://www.reddit.com/u/sirber">sirber</a>
        <span class="score"> | 3 points</span>
        <span class="timestamp"> | May 26 2017 00:47:41</span>
    </p>
    <div class="collapsible">
        <p>a classic!</p>
        <p class="toolbar">
            <a href="https://www.reddit.com/r/megalinks/comments/6d9wgq/_/di1ul5i">permalink</a>
        </p>
        
    </div>
</div>

<div class="comment" id="t1_di2yiyn">
    <p class="userinfo">
        <a
        class="toggle_hide_button"
        href="javascript:void(0)"
        onclick="toggle_collapse(this.parentElement.parentElement)">[-]
        </a>
        <a href="https://www.reddit.com/u/MyShout">MyShout</a>
        <span class="score"> | 2 points</span>
        <span class="timestamp"> | May 26 2017 18:35:46</span>
    </p>
    <div class="collapsible">
        <p>Best Star Trek movie.  Thanks.</p>
        <p class="toolbar">
            <a href="https://www.reddit.com/r/megalinks/comments/6d9wgq/_/di2yiyn">permalink</a>
        </p>
        
    </div>
</div>
</body>

<script>
function toggle_collapse(comment_div)
{
    var button = comment_div.getElementsByClassName("toggle_hide_button")[0];
    var collapsible = comment_div.getElementsByClassName("collapsible")[0];
    if (collapsible.classList.contains("hidden"))
    {
        collapsible.classList.remove("hidden");
        button.innerText = "[-]";
    }
    else
    {
        collapsible.classList.add("hidden");
        button.innerText = "[+]";
    }
}
</script>
</html>
